<svg width="500" height="500" version="1.2" baseProfile="tiny-ps" viewBox="0 0 500 500" xmlns="http://www.w3.org/2000/svg">
 <title>QuickBib Icon</title>
 <linearGradient id="a" x1="643.46" x2="182.89" y1="810.87" y2="350.3" gradientTransform="matrix(.96 0 0 .96 16.527 23.223)" gradientUnits="userSpaceOnUse">
  <stop stop-color="#65a38f" offset="0"/>
  <stop stop-color="#3b3880" offset="1"/>
 </linearGradient>
 <filter id="b" x="-.063889" y="-.050057" width="1.1278" height="1.1001" color-interpolation-filters="sRGB">
  <feGaussianBlur result="blur" stdDeviation="8 8"/>
 </filter>
 <g transform="matrix(.78606 0 0 .78606 -69.345 -200.94)">
  <g transform="matrix(.97872 0 0 .97872 1.8776 5.4408)">
   <g transform="matrix(.92 0 0 .92 33.054 46.447)">
    <path d="m738.07 573.92a324.96 324.96 0 0 1-318.06 331.56 324.96 324.96 0 0 1-331.71-317.9 324.96 324.96 0 0 1 317.73-331.87 324.96 324.96 0 0 1 332.03 317.57" fill="#fff"/>
    <path d="m725.07 574.18a311.96 311.96 0 0 1-305.34 318.29 311.96 311.96 0 0 1-318.44-305.18 311.96 311.96 0 0 1 305.02-318.59 311.96 311.96 0 0 1 318.74 304.87" fill="url(#a)" stroke-width=".96"/>
    <g transform="matrix(1.2677 0 0 1.2677 -116.1 -158.58)">
     <rect transform="translate(.34515 4.2414)" x="266.91" y="387.06" width="300.52" height="383.56" ry="16.215" fill="#1a1a1a" filter="url(#b)"/>
     <rect x="272.97" y="396.75" width="289.09" height="372.66" ry="15.754" fill="#fff"/>
     <g transform="matrix(2.1084 0 0 2.1084 -350.58 -457.6)">
      <rect x="306.98" y="430.7" width="117.95" height="53.562" ry="9.5555" fill="#133660"/>
      <text x="365.00665" y="472.55276" fill="#133660" font-family="'Times New Roman'" font-size="42.036px" letter-spacing="1.2884" stroke-width="2.0299" text-anchor="middle"><tspan x="365.8511" y="472.55276" fill="#ffffff" font-family="Lato" font-weight="bold" stroke-width="2.0299">DOI</tspan></text>
     </g>
     <text x="418.41864" y="704.37653" fill="#a51a2a" font-family="'Latin Modern Roman'" font-size="136.95px" letter-spacing="5.5023" stroke="#a51a2a" stroke-width="6.6131" text-anchor="middle"><tspan x="421.1698" y="704.37653" fill="#a51a2a" font-family="'Times New Roman'" font-weight="bold" stroke="#a51a2a" stroke-width="6.6131">{<tspan font-weight="normal" stroke-width="6.6131">@</tspan>}</tspan></text>
    </g>
   </g>
  </g>
 </g>
</svg>
