<?xml version="1.0" encoding="UTF-8" standalone="no"?>
<svg
   height="500"
   viewBox="0 0 500 500"
   width="500"
   version="1.1"
   id="svg8"
   sodipodi:docname="io.github.archisman_panigrahi.QuickBib.svg"
   inkscape:version="1.4.2 (1:1.4.2+202505120737+ebf0e940d0)"
   xmlns:inkscape="http://www.inkscape.org/namespaces/inkscape"
   xmlns:sodipodi="http://sodipodi.sourceforge.net/DTD/sodipodi-0.dtd"
   xmlns="http://www.w3.org/2000/svg"
   xmlns:svg="http://www.w3.org/2000/svg">
  <defs
     id="defs8" />
  <sodipodi:namedview
     id="namedview8"
     pagecolor="#ffffff"
     bordercolor="#000000"
     borderopacity="0.25"
     inkscape:showpageshadow="2"
     inkscape:pageopacity="0.0"
     inkscape:pagecheckerboard="0"
     inkscape:deskcolor="#d1d1d1"
     inkscape:zoom="1.6503902"
     inkscape:cx="256.60598"
     inkscape:cy="255.69711"
     inkscape:window-width="1852"
     inkscape:window-height="1048"
     inkscape:window-x="68"
     inkscape:window-y="32"
     inkscape:window-maximized="1"
     inkscape:current-layer="g10" />
  <linearGradient
     id="a"
     gradientUnits="userSpaceOnUse"
     x1="643.46289"
     x2="182.88963"
     y1="810.87354"
     y2="350.30029"
     gradientTransform="matrix(0.96,0,0,0.96,16.527049,23.223478)">
    <stop
       offset="0"
       stop-color="#65a38f"
       id="stop1" />
    <stop
       offset="1"
       stop-color="#3b3880"
       id="stop2" />
  </linearGradient>
  <filter
     id="b"
     color-interpolation-filters="sRGB"
     height="1.1001138"
     width="1.1277787"
     x="-0.063889371"
     y="-0.050056892">
    <feGaussianBlur
       result="blur"
       stdDeviation="8 8"
       id="feGaussianBlur2" />
  </filter>
  <g
     transform="matrix(0.78606105,0,0,0.78606105,-69.345036,-200.94009)"
     id="g8">
    <g
       id="g1"
       transform="matrix(0.97871601,0,0,0.97871601,1.8776396,5.4408086)">
      <g
         id="g2"
         transform="matrix(0.91999999,0,0,0.91999999,33.054103,46.446962)">
        <path
           d="M 738.06565,573.91769 A 324.95785,324.95785 0 0 1 420.00568,905.47304 324.95785,324.95785 0 0 1 88.293561,587.57657 324.95785,324.95785 0 0 1 406.0265,255.70779 324.95785,324.95785 0 0 1 738.05187,573.27712"
           fill="url(#a)"
           id="path1"
           style="fill:#ffffff;fill-opacity:1;stroke-width:1" />
        <path
           d="M 725.07007,574.18445 A 311.95954,311.95954 0 0 1 419.7325,892.47761 311.95954,311.95954 0 0 1 101.28887,587.29697 311.95954,311.95954 0 0 1 406.31249,268.70294 311.95954,311.95954 0 0 1 725.05684,573.5695"
           fill="url(#a)"
           id="path2"
           style="fill:url(#a);stroke-width:0.96" />
        <g
           transform="matrix(1.2676936,0,0,1.2676936,-116.10046,-158.57852)"
           id="g7">
          <rect
             fill="#1a1a1a"
             filter="url(#b)"
             height="383.56357"
             ry="16.214912"
             transform="translate(0.345154,4.24144)"
             width="300.51947"
             x="266.90662"
             y="387.05573"
             id="rect2" />
          <rect
             fill="#ffffff"
             height="372.65704"
             ry="15.753846"
             width="289.09149"
             x="272.96576"
             y="396.75043"
             id="rect3" />
          <g
             id="g10"
             transform="matrix(2.1083567,0,0,2.1083567,-350.58365,-457.60211)">
            <g
               id="g9">
              <rect
                 fill="#133660"
                 height="53.562298"
                 ry="9.5554867"
                 width="117.95103"
                 x="306.98306"
                 y="430.70169"
                 id="rect4" />
            </g>
            <path
               style="font-weight:bold;font-size:42.0361px;font-family:Lato;letter-spacing:1.28835;text-anchor:middle;fill:#ffffff;stroke-width:2.02993"
               d="m 355.73518,457.35672 q 0,3.34187 -1.11396,6.13727 -1.11395,2.7954 -3.13169,4.81313 -2.01773,2.01773 -4.85517,3.13169 -2.83743,1.11395 -6.30541,1.11395 H 328.748 v -30.39209 h 11.58095 q 3.46798,0 6.30541,1.13497 2.83744,1.11396 4.85517,3.13169 2.01774,1.99671 3.13169,4.79211 1.11396,2.79541 1.11396,6.13728 z m -5.80098,0 q 0,-2.50115 -0.67258,-4.47685 -0.65156,-1.99671 -1.91264,-3.36289 -1.24007,-1.38719 -3.0266,-2.12282 -1.76552,-0.73563 -3.99343,-0.73563 h -5.90607 v 21.39637 h 5.90607 q 2.22791,0 3.99343,-0.73563 1.78653,-0.73563 3.0266,-2.1018 1.26108,-1.3872 1.91264,-3.36289 0.67258,-1.99672 0.67258,-4.49786 z m 41.0545,0 q 0,3.34187 -1.11396,6.20032 -1.09294,2.83744 -3.11067,4.91822 -2.01774,2.08079 -4.85517,3.2578 -2.83744,1.15599 -6.30542,1.15599 -3.44696,0 -6.28439,-1.15599 -2.83744,-1.17701 -4.87619,-3.2578 -2.01773,-2.08078 -3.13169,-4.91822 -1.11396,-2.85845 -1.11396,-6.20032 0,-3.34187 1.11396,-6.17931 1.11396,-2.85846 3.13169,-4.93924 2.03875,-2.08079 4.87619,-3.23678 2.83743,-1.17701 6.28439,-1.17701 2.31199,0 4.35074,0.54647 2.03875,0.52545 3.74121,1.5133 1.70246,0.96683 3.04762,2.37504 1.36617,1.38719 2.31198,3.11067 0.94582,1.72348 1.42923,3.74121 0.50444,2.01773 0.50444,4.24565 z m -5.77997,0 q 0,-2.50115 -0.67258,-4.47685 -0.67257,-1.99671 -1.91264,-3.38391 -1.24006,-1.38719 -3.0266,-2.12282 -1.76551,-0.73563 -3.99343,-0.73563 -2.22791,0 -4.01444,0.73563 -1.76552,0.73563 -3.0266,2.12282 -1.24007,1.3872 -1.91265,3.38391 -0.67257,1.9757 -0.67257,4.47685 0,2.50114 0.67257,4.49786 0.67258,1.97569 1.91265,3.36289 1.26108,1.36617 3.0266,2.1018 1.78653,0.73563 4.01444,0.73563 2.22792,0 3.99343,-0.73563 1.78654,-0.73563 3.0266,-2.1018 1.24007,-1.3872 1.91264,-3.36289 0.67258,-1.99672 0.67258,-4.49786 z m 17.72448,15.19604 h -5.67487 v -30.39209 h 5.67487 z"
               id="text4"
               aria-label="DOI" />
          </g>
          <g
             id="text6"
             style="font-size:136.947px;font-family:'Latin Modern Roman';letter-spacing:5.50232;text-anchor:middle;fill:#a51a2a;stroke:#a51a2a;stroke-width:6.61314"
             aria-label="{@}">
            <path
               style="font-weight:bold;font-family:'Times New Roman'"
               d="m 346.79276,611.6297 v 3.00909 q -6.68686,1.2705 -9.89656,4.74767 -3.14282,3.41031 -3.14282,7.82364 0,4.4802 1.60484,11.16706 1.60485,6.62 1.60485,11.56828 0,4.54707 -2.74161,9.29474 -2.67475,4.68081 -7.75677,8.02424 -3.54404,2.34041 -11.3008,4.41333 8.29171,2.60788 12.03636,5.14889 4.94828,3.4103 7.42242,8.02424 2.47414,4.61394 2.47414,8.75979 0,4.01212 -1.67172,10.69899 -1.60484,6.68686 -1.60484,11.63514 0,4.74768 3.00909,8.15798 3.07595,3.47717 9.96342,4.81454 v 3.14283 h -2.3404 q -6.8206,0.0669 -12.97252,-3.14283 -6.08504,-3.20969 -9.22787,-8.29171 -3.07596,-5.01515 -3.07596,-9.76282 0,-4.61394 2.07293,-12.63818 1.53798,-5.95131 1.53798,-10.63212 0,-5.28262 -3.34344,-8.9604 -3.34343,-3.74464 -9.76282,-4.81454 v -4.07899 q 6.41939,-1.0699 9.76282,-4.94828 3.34344,-3.87838 3.34344,-9.42848 0,-4.54707 -1.47111,-10.2309 -2.07293,-7.95737 -2.07293,-12.10323 0,-4.34646 2.60788,-8.82666 2.60787,-4.4802 6.55312,-7.28869 3.94526,-2.80848 8.62606,-4.07898 3.61091,-1.00303 9.76282,-1.20364 z"
               id="path3" />
            <path
               style="font-family:'Times New Roman'"
               d="m 452.26372,640.31635 -7.82363,26.6806 q -4.34646,14.97858 -5.28262,18.9907 -0.93616,4.01211 -0.93616,6.41939 0,2.13979 1.40424,3.6109 1.47111,1.47111 3.61091,1.47111 4.88141,0 11.70201,-4.88141 6.88747,-4.88141 11.76888,-15.84787 4.88142,-10.96646 4.88142,-22.86908 0,-11.43454 -5.5501,-21.13049 -5.48323,-9.69596 -15.5804,-14.84485 -10.0303,-5.21575 -22.20039,-5.21575 -15.44666,0 -28.68666,8.22484 -13.23999,8.15798 -20.99675,23.53777 -7.6899,15.37979 -7.6899,31.96322 0,15.37979 6.75373,27.9511 6.82061,12.5713 19.12444,18.99069 12.30383,6.48626 26.47999,6.48626 17.58645,0 31.76261,-9.42848 14.24302,-9.42848 21.99979,-27.54988 h 3.87838 q -6.01818,18.32201 -21.86605,29.68968 -15.84787,11.36767 -36.10908,11.36767 -15.91474,0 -29.55594,-7.55616 -13.64121,-7.48929 -21.19736,-21.3311 -7.55616,-13.77494 -7.55616,-30.35837 0,-17.65332 8.29171,-32.89938 8.29171,-15.31292 23.20342,-23.87211 14.97858,-8.62605 31.76262,-8.62605 13.84181,0 24.942,5.7507 11.16707,5.68384 16.98464,16.71717 5.81757,10.96646 5.81757,23.33716 0,12.23696 -5.48322,24.27332 -5.41637,11.96949 -13.84182,17.45272 -8.42545,5.48323 -17.58645,5.48323 -5.08202,0 -7.6899,-2.40727 -2.54101,-2.40728 -2.54101,-6.75374 0,-3.74464 1.20364,-9.82969 -9.89656,11.96949 -15.84787,15.51353 -5.95131,3.54404 -10.49838,3.54404 -4.74768,0 -8.42545,-4.21273 -3.67778,-4.27959 -3.67778,-11.36767 0,-9.69596 6.28566,-21.73231 6.35252,-12.03636 16.78403,-19.59252 7.68989,-5.5501 13.77494,-5.5501 4.4802,0 7.42242,2.34041 3.00909,2.27353 4.07899,6.88747 l 2.20667,-7.35556 z m -23.47089,2.74162 q -5.01515,0 -10.16404,5.28262 -7.55616,7.75677 -12.90565,20.92989 -3.94525,9.62909 -3.94525,15.51353 0,4.21273 2.3404,6.88747 2.40727,2.60788 5.34949,2.60788 3.87839,0 8.15798,-2.94222 4.27959,-2.94222 8.9604,-9.02727 4.68081,-6.15192 6.8206,-12.30383 3.74465,-10.63212 3.74465,-17.31898 0,-4.41334 -2.47414,-7.02121 -2.40727,-2.60788 -5.88444,-2.60788 z"
               id="path4" />
            <path
               style="font-weight:bold;font-family:'Times New Roman'"
               d="m 495.81431,732.06015 v -3.07596 q 6.61999,-1.2705 9.82969,-4.74767 3.20969,-3.4103 3.20969,-7.82364 0,-4.41333 -1.60484,-11.10019 -1.60485,-6.62 -1.60485,-11.56828 0,-4.61394 2.67474,-9.29474 2.67475,-4.74768 7.82364,-8.09111 3.54404,-2.27354 11.3008,-4.41333 -8.29171,-2.60788 -12.03636,-5.14889 -5.01515,-3.4103 -7.48929,-8.02424 -2.47414,-4.61393 -2.47414,-8.75979 0,-4.01212 1.60485,-10.69899 1.67172,-6.68686 1.67172,-11.56827 0,-4.81455 -3.00909,-8.22485 -3.00909,-3.4103 -9.89656,-4.81454 v -3.07596 l 2.3404,-0.0669 q 6.75373,-0.0669 12.90565,3.14283 6.15191,3.20969 9.22787,8.29171 3.14283,5.01515 3.14283,9.82969 0,4.54707 -2.07293,12.57131 -1.53798,5.95131 -1.53798,10.63212 0,5.28262 3.27657,9.02727 3.34343,3.74464 9.82969,4.74767 v 4.07899 q -6.48626,1.0699 -9.82969,4.94828 -3.27657,3.87838 -3.27657,9.42848 0,4.54707 1.47111,10.2309 2.00606,7.95737 2.00606,12.10323 0,4.41333 -2.60788,8.82666 -2.541,4.4802 -6.48625,7.28869 -3.94526,2.80848 -8.62606,4.07898 -3.61091,1.00303 -9.76282,1.27051 z"
               id="path5" />
          </g>
        </g>
      </g>
    </g>
  </g>
</svg>
